<svg xmlns="http://www.w3.org/2000/svg" xmlns:xlink="http://www.w3.org/1999/xlink" viewBox="49.566 5.865 120.849 53.27">
  <defs>
    <style>
      .cls-1 {
        fill: #fd3c65;
      }

      .cls-2 {
        fill: #fd003a;
      }

      .cls-3 {
        fill: #cae8f9;
      }

      .cls-4 {
        fill: #b7e0f6;
      }

      .cls-5 {
        fill: #1689fc;
      }

      .cls-6 {
        fill: #415be8;
      }

      .cls-7 {
        fill: #17ace8;
      }

      .cls-8 {
        fill: #fff;
        font-size: 21px;
        font-family: Ubuntu-Bold, Ubuntu;
        font-weight: 700;
      }

      .cls-9 {
        filter: url(#Path_4);
      }
    </style>
    <filter id="Path_4" x="49.566" y="5.865" width="35.148" height="53.27" filterUnits="userSpaceOnUse">
      <feOffset input="SourceAlpha"/>
      <feGaussianBlur stdDeviation="4" result="blur"/>
      <feFlood flood-opacity="0.161"/>
      <feComposite operator="in" in2="blur"/>
      <feComposite in="SourceGraphic"/>
    </filter>
  </defs>
  <g id="Group_9" data-name="Group 9" transform="translate(11.7 1.865)">
    <g id="place" transform="translate(38.718 16)">
      <path id="Path_3" data-name="Path 3" class="cls-1" d="M72.147,0A11.219,11.219,0,0,0,61,11.2a11.047,11.047,0,0,0,2.23,6.689l8.232,11.034a.858.858,0,0,0,1.372,0l8.232-11.034a11.047,11.047,0,0,0,2.23-6.689A11.219,11.219,0,0,0,72.147,0Z" transform="translate(-60.999)"/>
      <g class="cls-9" transform="matrix(1, 0, 0, 1, -50.42, -17.86)">
        <path id="Path_4-2" data-name="Path 4" class="cls-2" d="M267.147,11.2a11.047,11.047,0,0,1-2.23,6.689l-8.232,11.034a.822.822,0,0,1-.686.343V0A11.219,11.219,0,0,1,267.147,11.2Z" transform="translate(-194.43 17.86)"/>
      </g>
      <path id="Path_5" data-name="Path 5" class="cls-3" d="M136.434,68.718a7.617,7.617,0,0,1-2.607,5.728H123.606A7.617,7.617,0,0,1,121,68.718a7.718,7.718,0,0,1,15.435,0Z" transform="translate(-117.569 -57.513)"/>
      <path id="Path_6" data-name="Path 6" class="cls-4" d="M263.717,68.718a7.617,7.617,0,0,1-2.607,5.728H256V61A7.729,7.729,0,0,1,263.717,68.718Z" transform="translate(-244.851 -57.513)"/>
      <path id="Path_9" data-name="Path 9" class="cls-5" d="M176.822,215.871a7.559,7.559,0,0,1-10.222,0,5.117,5.117,0,0,1,10.222,0Z" transform="translate(-160.563 -198.938)"/>
      <path id="Path_10" data-name="Path 10" class="cls-6" d="M261.11,215.871A7.631,7.631,0,0,1,256,217.86V211A5.124,5.124,0,0,1,261.11,215.871Z" transform="translate(-244.851 -198.938)"/>
      <path id="Path_11" data-name="Path 11" class="cls-7" d="M199.429,121a3.43,3.43,0,1,0,3.43,3.43A3.44,3.44,0,0,0,199.429,121Z" transform="translate(-188.281 -114.083)"/>
      <path id="Path_12" data-name="Path 12" class="cls-5" d="M256,127.86V121a3.43,3.43,0,1,1,0,6.86Z" transform="translate(-244.851 -114.083)"/>
    </g>
    <text id="placekid" class="cls-8" transform="translate(73.714 38.168)"><tspan x="0" y="0">placekid</tspan></text>
  </g>
</svg>
